<svg version="1.1" id="Layer_1" xmlns="http://www.w3.org/2000/svg" xmlns:xlink="http://www.w3.org/1999/xlink" x="0px" y="0px" width="100%" viewBox="0 0 256 256" xml:space="preserve">
  <path fill="#FAFAFA" opacity="1.000000" stroke="none" d="M127.773415,174.696793 C127.505173,179.976303 127.003555,185.256439 127.017342,190.535217 C127.045898,201.473969 122.314087,209.263962 112.471016,214.067688 C103.958458,218.222092 95.554688,222.599213 87.046951,226.763733 C69.803276,235.204453 52.291592,224.382050 52.235081,205.242813 C52.179577,186.443024 52.190002,167.642899 52.234089,148.843063 C52.179577,133.000366 59.602974,121.570175 73.569153,114.369797 C83.318092,109.343658 93.172905,104.522881 103.577484,99.330750 C110.149117,95.925163 116.123672,92.799217 122.478119,89.632942 C125.550537,88.296532 128.226776,86.965248 130.938431,85.710442 C142.906479,80.172272 154.780365,87.648621 154.968201,100.875542 C155.053162,106.858543 154.592636,112.875023 155.068497,118.821190 C155.965561,130.030548 152.142151,138.807571 143.457611,145.970596 C139.968399,148.848511 137.517319,152.985077 134.311310,156.761749 C131.943726,162.882095 129.858566,168.789444 127.773415,174.696793 M70.891312,162.501007 C70.891586,176.325500 70.869766,190.150055 70.901619,203.974487 C70.917183,210.730560 73.611221,212.446045 79.569321,209.502594 C87.178192,205.743637 94.638329,201.657593 102.386108,198.215729 C106.894920,196.212769 108.476814,193.422256 108.203629,188.587692 C106.868324,164.956802 114.841553,145.180328 133.043594,129.708710 C134.444351,128.518066 135.929047,126.533821 136.016510,124.847984 C136.359100,118.243210 136.156570,111.610161 136.156570,104.876450 C135.312180,104.922928 134.763275,104.801392 134.372345,104.996452 C116.208199,114.059586 97.977585,122.995308 79.951965,132.326904 C74.112328,135.349991 71.159790,140.844406 70.943657,147.511948 C70.792641,152.170929 70.899590,156.838257 70.891312,162.501007 z"/>
  <path fill="#68DD4D" opacity="1.000000" stroke="none" d="M128.116058,174.845474 C129.858566,168.789444 131.943726,162.882095 134.660309,156.939423 C137.248856,158.164246 139.126556,159.574356 141.176086,160.660049 C153.895630,167.397995 163.129837,164.865356 169.636230,152.004501 C172.597183,146.151764 174.113968,139.538727 176.005310,133.187027 C176.957947,129.987747 177.284180,126.601959 177.893661,123.300514 C178.440872,123.360985 178.988083,123.421463 179.535294,123.481941 C179.189178,130.669144 179.543076,137.980011 178.301315,145.008987 C177.043121,152.131088 174.207581,158.974518 172.124786,165.739059 C181.458099,163.831909 187.642792,156.137985 187.701508,145.356720 C187.811218,125.211037 187.874725,105.062920 187.676407,84.918587 C187.559631,73.056267 182.707199,63.275715 173.067337,56.191517 C158.201080,45.266510 141.834915,49.303139 133.529114,65.760742 C132.892960,67.021271 131.923813,68.113762 131.109451,69.284355 C130.456421,68.959503 129.803391,68.634651 129.150375,68.309799 C131.642654,61.990665 134.134933,55.671535 136.880661,48.709805 C135.211502,49.311146 133.642746,49.607815 132.363205,50.382305 C125.699249,54.415863 122.387405,60.488899 122.213493,68.198174 C122.052071,75.353760 122.127235,82.514687 122.098221,89.673264 C116.123672,92.799217 110.149117,95.925163 103.847290,99.079971 C103.495972,89.122055 103.339165,79.133484 103.474258,69.148857 C103.800690,45.024147 120.798676,28.139763 144.862503,29.120974 C160.096558,29.742147 174.999908,32.806644 187.087769,43.378567 C199.237152,54.004276 206.057983,67.230438 206.127319,83.555992 C206.214966,104.196098 206.194702,124.836945 206.145370,145.477280 C206.085754,170.427322 186.341965,188.064728 161.617508,184.968399 C150.061615,183.521210 138.496841,181.682236 128.116058,174.845474 z"/>
</svg>